<?xml version="1.0" encoding="utf-8"?>
<!-- Generator: Adobe Illustrator 24.3.0, SVG Export Plug-In . SVG Version: 6.00 Build 0)  -->
<svg version="1.1" id="Layer_1" xmlns="http://www.w3.org/2000/svg" xmlns:xlink="http://www.w3.org/1999/xlink" x="0px" y="0px"
	 viewBox="0 0 128 128" style="enable-background:new 0 0 128 128;" xml:space="preserve">
<style type="text/css">
	.st0{fill:#606060;}
</style>
<path class="st0" d="M36.67,117.48c-7.01,0-12.71-5.7-12.71-12.71V72.39h-4.5l-0.15,0.2c-1.05,1.4-2.64,2.2-4.38,2.2
	c-3.04,0-5.51-2.47-5.51-5.51c0-3.04,2.47-5.51,5.51-5.51c1.75,0,3.35,0.81,4.4,2.22l0.15,0.2h4.48V45.92
	c0-9.03,7.34-16.37,16.37-16.37h2.85V27.9c0-9.58,7.79-17.37,17.37-17.37h25.09c8.26,0,16.03,3.22,21.87,9.06
	c5.84,5.84,9.06,13.61,9.06,21.87c0,17.06-13.88,30.93-30.94,30.93H49.38v32.38C49.38,111.78,43.68,117.48,36.67,117.48z
	 M30.16,104.77c0,3.59,2.92,6.51,6.51,6.51c3.59,0,6.51-2.92,6.51-6.51V72.39H30.16V104.77z M49.38,66.2h36.26
	c13.64,0,24.74-11.1,24.74-24.74c0-6.61-2.57-12.82-7.25-17.49c-4.67-4.67-10.88-7.25-17.49-7.25H60.55
	c-6.16,0-11.18,5.01-11.18,11.18v1.65h35.56c6.54,0,11.86,5.32,11.86,11.86s-5.32,11.86-11.86,11.86H64.58l-0.15,0.18
	c-1.05,1.28-2.59,2.01-4.24,2.01c-3.04,0-5.51-2.47-5.51-5.51s2.47-5.51,5.51-5.51c1.82,0,3.51,0.9,4.54,2.41l0.15,0.22h20.05
	c3.12,0,5.67-2.54,5.67-5.67s-2.54-5.67-5.67-5.67H49.38V66.2z M40.34,35.74c-5.61,0-10.18,4.57-10.18,10.18V66.2h13.02V35.74H40.34
	z"/>
</svg>
