<?xml version="1.0" standalone="no"?>
<!DOCTYPE svg PUBLIC "-//W3C//DTD SVG 20010904//EN"
 "http://www.w3.org/TR/2001/REC-SVG-20010904/DTD/svg10.dtd">
<svg version="1.0" xmlns="http://www.w3.org/2000/svg"
 width="505.000000pt" height="256.000000pt" viewBox="0 0 505.000000 256.000000"
 preserveAspectRatio="xMidYMid meet">

<g transform="translate(0.000000,256.000000) scale(0.100000,-0.100000)"
fill="#000000" stroke="none">
<path d="M1038 2256 c-64 -17 -121 -57 -162 -113 -37 -51 -51 -90 -62 -170
l-7 -53 -46 0 c-113 0 -216 -62 -269 -164 -27 -50 -27 -54 -30 -278 l-4 -228
-45 0 c-30 0 -53 7 -70 20 -37 29 -79 26 -114 -9 -48 -48 -38 -116 22 -147 38
-19 79 -11 109 22 17 17 34 24 61 24 l38 0 3 -332 3 -333 28 -48 c41 -69 94
-101 177 -105 75 -5 124 14 172 65 56 59 58 74 58 428 l0 325 368 0 c335 0
376 2 446 20 107 27 169 63 251 145 143 142 196 328 150 524 -47 197 -220 364
-424 407 -88 18 -584 19 -653 0z m634 -87 c82 -17 154 -56 222 -119 109 -102
152 -212 144 -367 -5 -82 -10 -103 -42 -167 -41 -85 -119 -168 -193 -208 -99
-54 -135 -58 -535 -58 l-368 0 0 290 0 290 345 0 c380 0 390 -1 420 -60 19
-37 19 -73 0 -110 -28 -55 -52 -60 -286 -60 -211 0 -211 0 -241 25 -51 43
-119 30 -143 -28 -17 -42 -9 -83 23 -107 33 -27 93 -26 117 0 17 19 31 20 245
20 l228 0 53 28 c43 22 59 38 81 81 37 70 37 122 0 192 -22 43 -38 59 -81 81
l-53 28 -354 0 -354 0 0 26 c0 90 67 192 145 219 51 18 546 21 627 4z m-862
-629 l0 -290 -130 0 -130 0 0 204 c0 125 4 216 11 237 29 86 104 139 197 139
l52 0 0 -290z m0 -700 c0 -354 -2 -365 -62 -396 -42 -22 -105 -20 -137 4 -59
42 -61 58 -61 400 l0 312 130 0 130 0 0 -320z"/>
<path d="M4750 1940 l0 -220 30 0 30 0 0 220 0 220 -30 0 -30 0 0 -220z"/>
<path d="M2360 1930 l0 -210 35 0 35 0 0 85 0 85 48 0 c107 0 168 88 128 185
-21 49 -59 65 -161 65 l-85 0 0 -210z m171 134 c23 -21 25 -71 2 -96 -11 -12
-30 -18 -60 -18 l-43 0 0 71 0 72 41 -6 c22 -3 49 -13 60 -23z"/>
<path d="M2703 2019 c-36 -23 -73 -91 -73 -135 0 -128 112 -206 228 -158 57
24 75 49 48 69 -16 13 -22 12 -44 -5 -55 -43 -161 -9 -162 53 0 15 12 17 121
17 l122 0 -7 41 c-15 93 -65 139 -151 139 -33 0 -61 -7 -82 -21z m150 -60 c34
-42 24 -49 -68 -49 -54 0 -85 4 -85 11 0 6 14 24 30 41 27 26 36 30 68 25 20
-4 45 -16 55 -28z"/>
<path d="M2980 1880 l0 -160 35 0 35 0 0 95 c0 110 11 140 57 157 27 10 33 17
33 40 0 23 -4 28 -23 28 -13 0 -33 -9 -45 -20 -12 -11 -24 -20 -27 -20 -3 0
-5 9 -5 20 0 16 -7 20 -30 20 l-30 0 0 -160z"/>
<path d="M3196 2018 c-61 -54 -36 -121 60 -163 30 -13 57 -31 60 -40 16 -41
-68 -64 -106 -30 -17 15 -21 16 -41 2 l-22 -16 28 -25 c52 -49 136 -46 180 6
49 59 30 108 -60 149 -66 30 -78 43 -63 72 11 21 56 22 79 1 14 -12 22 -13 38
-4 28 14 26 24 -5 49 -38 30 -114 29 -148 -1z"/>
<path d="M3494 2026 c-39 -17 -71 -58 -85 -108 -20 -76 17 -158 85 -189 125
-56 256 34 242 166 -6 56 -27 89 -76 123 -38 26 -116 30 -166 8z m149 -77 c61
-65 18 -179 -68 -179 -47 0 -71 13 -90 50 -23 44 -19 94 10 129 42 49 102 49
148 0z"/>
<path d="M3780 1880 l0 -160 35 0 35 0 0 113 c0 127 9 147 67 147 53 0 63 -23
63 -148 l0 -112 35 0 35 0 0 90 c0 119 -15 184 -47 210 -35 27 -102 27 -137
-1 l-26 -20 0 20 c0 17 -6 21 -30 21 l-30 0 0 -160z"/>
<path d="M4097 2033 c-4 -3 -7 -75 -7 -160 l0 -153 35 0 35 0 0 108 c0 127 11
152 65 152 58 0 65 -17 65 -146 l0 -114 35 0 35 0 0 103 c0 56 -5 119 -10 139
-13 46 -52 78 -96 78 -38 0 -84 -18 -85 -34 0 -6 -4 -1 -9 12 -9 21 -48 31
-63 15z"/>
<path d="M4473 2020 c-48 -29 -76 -91 -71 -157 10 -120 120 -184 232 -135 53
24 67 47 40 67 -16 11 -22 10 -45 -6 -40 -28 -104 -25 -134 6 -14 13 -25 33
-25 44 0 19 7 21 118 23 l117 3 -4 40 c-4 54 -26 92 -64 115 -43 26 -121 26
-164 0z m120 -41 c21 -9 47 -46 47 -64 0 -3 -38 -5 -85 -5 -88 0 -100 7 -72
42 28 36 69 46 110 27z"/>
<path d="M3450 1360 l0 -220 50 0 49 0 3 72 3 73 43 -73 43 -72 54 0 c30 0 55
3 55 7 0 3 -23 41 -51 85 l-50 79 50 69 c28 38 51 72 51 75 0 3 -24 5 -54 5
l-54 0 -43 -67 -44 -67 -3 127 -3 127 -49 0 -50 0 0 -220z"/>
<path d="M3804 1555 c-15 -23 -15 -27 0 -50 11 -17 26 -25 46 -25 20 0 35 8
46 25 15 23 15 27 0 50 -11 17 -26 25 -46 25 -20 0 -35 -8 -46 -25z"/>
<path d="M2330 1515 l0 -45 45 0 45 0 0 -165 0 -165 50 0 50 0 0 165 0 165 50
0 50 0 0 45 0 45 -145 0 -145 0 0 -45z"/>
<path d="M2640 1300 l0 -160 50 0 50 0 0 79 c0 101 10 130 50 137 28 6 30 9
30 55 0 56 -17 64 -57 27 l-23 -21 0 21 c0 20 -5 22 -50 22 l-50 0 0 -160z"/>
<path d="M2890 1444 c-48 -21 -48 -14 -4 -82 1 -2 21 2 44 8 35 9 46 9 66 -5
13 -8 24 -19 24 -23 0 -4 -30 -7 -66 -7 -62 0 -67 -2 -95 -33 -42 -47 -40 -93
6 -139 33 -33 38 -35 87 -29 29 3 79 5 111 5 l57 0 0 103 c0 131 -11 173 -53
198 -39 24 -126 26 -177 4z m119 -188 c6 -7 9 -21 5 -30 -8 -21 -72 -22 -80
-1 -14 36 50 62 75 31z"/>
<path d="M3245 1446 c-89 -40 -124 -169 -67 -245 39 -52 69 -66 142 -66 87 0
98 9 81 66 -9 31 -15 39 -24 30 -6 -6 -28 -11 -48 -11 -67 0 -104 80 -59 128
22 24 68 29 100 12 17 -9 21 -5 31 30 9 31 10 43 1 52 -18 18 -122 21 -157 4z"/>
<path d="M3807 1453 c-4 -3 -7 -75 -7 -160 l0 -153 50 0 50 0 0 160 0 160 -43
0 c-24 0 -47 -3 -50 -7z"/>
<path d="M3950 1300 l0 -160 50 0 50 0 0 103 c0 108 7 127 45 127 38 0 45 -19
45 -127 l0 -103 50 0 50 0 0 110 c0 116 -13 170 -48 196 -23 18 -93 17 -119
-1 -19 -13 -22 -13 -27 0 -4 10 -20 15 -51 15 l-45 0 0 -160z"/>
<path d="M4363 1444 c-51 -26 -78 -78 -78 -149 1 -71 22 -118 68 -145 38 -23
101 -26 140 -6 30 16 34 10 14 -19 -15 -19 -79 -26 -129 -12 -24 6 -28 4 -38
-29 -15 -43 -8 -50 58 -60 86 -13 159 9 196 59 19 26 21 44 24 198 l3 170 -63
0 c-35 0 -85 2 -113 4 -35 4 -60 0 -82 -11z m141 -96 c38 -53 9 -128 -49 -128
-57 0 -91 61 -64 113 16 30 28 37 66 37 22 0 37 -7 47 -22z"/>
<path d="M2423 979 c-45 -13 -73 -53 -73 -104 0 -55 26 -88 100 -125 85 -43
111 -88 72 -123 -28 -26 -79 -21 -109 9 -19 19 -32 24 -49 20 -28 -7 -30 -23
-8 -54 23 -33 67 -52 123 -52 61 0 105 32 122 90 19 61 -9 105 -96 152 -91 49
-110 74 -82 111 23 30 61 31 94 3 27 -22 35 -25 58 -16 25 10 26 12 13 32 -36
54 -102 77 -165 57z"/>
<path d="M3250 909 c0 -22 -5 -32 -20 -36 -13 -3 -20 -14 -20 -28 0 -14 7 -25
20 -28 18 -5 20 -14 20 -101 0 -52 5 -106 11 -119 13 -29 48 -47 89 -47 27 0
30 3 30 30 0 25 -4 30 -23 30 -40 0 -47 18 -47 117 l0 93 30 0 c25 0 30 4 30
25 0 21 -5 25 -30 25 -28 0 -30 3 -30 35 0 32 -2 35 -30 35 -27 0 -30 -3 -30
-31z"/>
<path d="M3020 873 c-36 -13 -60 -47 -60 -83 0 -49 14 -64 88 -100 42 -20 62
-36 62 -48 0 -44 -59 -56 -102 -22 -22 17 -28 18 -44 5 -40 -30 20 -75 99 -75
40 0 53 5 78 29 21 21 29 39 29 63 0 46 -15 63 -87 98 -46 22 -63 35 -63 50 0
38 52 47 90 14 20 -17 56 7 46 31 -11 30 -94 53 -136 38z"/>
<path d="M3505 866 c-38 -17 -60 -41 -80 -89 -21 -51 -19 -97 8 -147 28 -53
75 -80 140 -80 51 0 78 10 114 43 22 20 22 21 3 34 -16 12 -24 11 -57 -7 -45
-24 -64 -25 -103 -5 -31 16 -50 43 -50 69 0 14 18 16 121 16 l122 0 -7 42
c-10 61 -40 103 -86 122 -48 19 -85 20 -125 2z m124 -72 c37 -48 30 -54 -64
-54 -95 0 -106 10 -60 55 35 36 96 35 124 -1z"/>
<path d="M3880 873 c-8 -3 -23 -12 -32 -21 -16 -14 -18 -13 -18 1 0 13 -9 17
-35 17 l-36 0 3 -157 3 -158 33 -3 32 -3 0 115 c0 103 2 118 20 136 20 20 55
26 77 12 23 -14 33 -64 33 -163 l0 -99 30 0 30 0 0 105 c0 58 5 115 12 130 21
46 91 45 109 -2 5 -13 9 -71 9 -129 l0 -104 30 0 30 0 0 125 c0 143 -10 176
-61 194 -48 16 -72 14 -111 -13 -35 -24 -36 -24 -55 -5 -20 20 -77 33 -103 22z"/>
<path d="M2684 716 l64 -155 -19 -51 c-24 -65 -24 -70 6 -70 30 0 27 -6 115
220 40 102 74 191 77 198 4 8 -6 12 -30 12 l-34 0 -38 -105 c-20 -58 -41 -107
-45 -110 -4 -3 -25 44 -46 103 l-39 107 -37 3 -37 3 63 -155z"/>
</g>
</svg>
